<?xml version="1.0" encoding="UTF-8" standalone="no"?>
<!-- Created with Inkscape (http://www.inkscape.org/) -->
<svg
   xmlns:dc="http://purl.org/dc/elements/1.1/"
   xmlns:cc="http://creativecommons.org/ns#"
   xmlns:rdf="http://www.w3.org/1999/02/22-rdf-syntax-ns#"
   xmlns:svg="http://www.w3.org/2000/svg"
   xmlns="http://www.w3.org/2000/svg"
   xmlns:sodipodi="http://sodipodi.sourceforge.net/DTD/sodipodi-0.dtd"
   xmlns:inkscape="http://www.inkscape.org/namespaces/inkscape"
   version="1.0"
   width="553.99591"
   height="553.99597"
   id="svg2440"
   sodipodi:version="0.32"
   inkscape:version="0.46"
   sodipodi:docname="icon.small.svg"
   inkscape:output_extension="org.inkscape.output.svg.inkscape">
  <metadata
	 id="metadata22">
	<rdf:RDF>
	  <cc:Work
		 rdf:about="">
		<dc:format>image/svg+xml</dc:format>
		<dc:type
		   rdf:resource="http://purl.org/dc/dcmitype/StillImage" />
	  </cc:Work>
	</rdf:RDF>
  </metadata>
  <sodipodi:namedview
	 inkscape:window-height="949"
	 inkscape:window-width="1280"
	 inkscape:pageshadow="2"
	 inkscape:pageopacity="0.0"
	 guidetolerance="10.0"
	 gridtolerance="10.0"
	 objecttolerance="10.0"
	 borderopacity="1.0"
	 bordercolor="#666666"
	 pagecolor="#ffffff"
	 id="base"
	 showgrid="false"
	 inkscape:zoom="0.59223817"
	 inkscape:cx="678.60355"
	 inkscape:cy="141.36077"
	 inkscape:window-x="0"
	 inkscape:window-y="25"
	 inkscape:current-layer="svg2440" />
  <defs
	 id="defs2443">
	<inkscape:perspective
	   sodipodi:type="inkscape:persp3d"
	   inkscape:vp_x="0 : 327.5 : 1"
	   inkscape:vp_y="0 : 1000 : 0"
	   inkscape:vp_z="1881 : 327.5 : 1"
	   inkscape:persp3d-origin="940.5 : 218.33333 : 1"
	   id="perspective24" />
	<clipPath
	   id="clipPath">
	  <path
		 d="M 172.52675,117.71945 C 231.85961,116.92649 248.58709,116.01511 325.9502,115.92851 C 538.23042,153.15306 417.30298,367.43536 304.16049,339.79541 C 302.82191,339.1925 303.03576,337.2071 304.59331,336.77929 C 335.21502,336.31685 395.06125,321.12313 396.99063,238.30908 C 398.91018,155.91693 330.72169,129.59024 309.83179,130.85297 C 288.64448,132.13368 286.06673,132.91669 265.95387,139.80765 C 266.13828,186.39768 265.58599,417.96362 266.25236,480.68231 C 270.20212,513.55208 281.0414,520.8628 305.05596,524.26173 C 264.89534,526.4667 212.29239,525.12874 179.392,524.26173 C 199.02572,517.12644 205.63003,509.04009 218.49409,497.69619 C 218.82161,434.71366 218.51431,232.15885 218.49409,158.01549 C 209.81769,134.31681 203.63612,125.97464 172.52675,117.71945 z"
		 id="path3263"
		 style="fill:#ffffff;fill-opacity:1;fill-rule:evenodd;stroke:#ffffff;stroke-width:1px;stroke-linecap:butt;stroke-linejoin:miter;stroke-opacity:1" />
	</clipPath>
	<filter
	   id="filter"
	   height="2"
	   width="2"
	   x="-0.5"
	   y="-0.5">
	  <feGaussianBlur
		 stdDeviation="5.0"
		 id="feGaussianBlur4037" />
	</filter>
  </defs>
  <rect
	 width="553.99591"
	 height="553.99597"
	 x="0"
	 y="0"
	 id="rect2451"
	 style="fill:#005ae5;fill-opacity:1;fill-rule:evenodd;stroke:none;stroke-width:1px;stroke-linecap:butt;stroke-linejoin:miter;stroke-opacity:1" />
  <path
	 d="M 143.52623,68.720549 C 202.85909,67.927589 219.58657,67.016209 296.94968,66.929609 C 509.2299,104.15416 388.30246,318.43646 275.15997,290.79651 C 273.82139,290.1936 274.03524,288.2082 275.59279,287.78039 C 306.2145,287.31795 366.06073,272.12423 367.99011,189.31018 C 369.90966,106.91803 301.72117,80.591339 280.83127,81.854069 C 259.64396,83.134779 257.06621,83.917789 236.95335,90.808749 C 237.13776,137.39878 236.58547,368.96472 237.25184,431.68341 C 241.2016,464.55318 252.04088,471.8639 276.05544,475.26283 C 235.89482,477.4678 183.29187,476.12984 150.39148,475.26283 C 170.0252,468.12754 176.62951,460.04119 189.49357,448.69729 C 189.82109,385.71476 189.51379,183.15995 189.49357,109.01659 C 180.81717,85.317909 174.6356,76.975739 143.52623,68.720549 z"
	 id="path4041"
	 style="fill:#ffffff;fill-opacity:1;fill-rule:evenodd;stroke:none;stroke-width:1px;stroke-linecap:butt;stroke-linejoin:miter;stroke-opacity:1" />
  <rect
	 width="519.27014"
	 height="517.7052"
	 ry="0"
	 x="17.314259"
	 y="17.294502"
	 id="rect3251"
	 style="fill:none;fill-opacity:1;stroke:#ffffff;stroke-width:11.87709522;stroke-miterlimit:4;stroke-dasharray:none;stroke-opacity:1" />
  <path
	 d="M 275.00251,14.90363 C 275.00251,109.98742 275.00251,537.88517 275.00251,537.88517"
	 id="path3259"
	 style="fill:none;fill-rule:evenodd;stroke:#ffffff;stroke-width:11.83595371;stroke-linecap:butt;stroke-linejoin:miter;stroke-miterlimit:4;stroke-dasharray:none;stroke-opacity:1" />
  <path
	 d="M 545.40963,275.87205 C 447.67185,275.87205 7.8305994,275.87205 7.8305994,275.87205"
	 id="path3261"
	 style="fill:none;fill-rule:evenodd;stroke:#ffffff;stroke-width:12;stroke-linecap:butt;stroke-linejoin:miter;stroke-miterlimit:4;stroke-dasharray:none;stroke-opacity:1" />
  <g
	 clip-path="url(#clipPath)"
	 id="g4050"
	 transform="translate(-29.000523,-48.998901)">
	<g
	   id="g4052">
	  <path
		 d="M 172.52675,117.71945 C 231.85961,116.92649 248.58709,116.01511 325.9502,115.92851 M 325.9502,115.92851 C 538.23042,153.15306 417.30298,367.43536 304.16049,339.79541 M 265.95387,139.80765 C 266.13828,186.39768 265.58599,417.96362 266.25236,480.68231 M 266.25236,480.68231 C 270.20212,513.55208 281.0414,520.8628 305.05596,524.26173 M 179.392,524.26173 C 199.02572,517.12644 205.63003,509.04009 218.49409,497.69619"
		 id="path4054"
		 style="fill:none;stroke:#ffffff;stroke-width:10;stroke-opacity:1;filter:url(#filter)" />
	  <path
		 d="M 304.16049,339.79541 C 302.82191,339.1925 303.03576,337.2071 304.59331,336.77929 M 304.59331,336.77929 C 335.21502,336.31685 395.06125,321.12313 396.99063,238.30908 M 396.99063,238.30908 C 398.91018,155.91693 330.72169,129.59024 309.83179,130.85297 M 309.83179,130.85297 C 288.64448,132.13368 286.06673,132.91669 265.95387,139.80765 M 305.05596,524.26173 C 264.89534,526.4667 212.29239,525.12874 179.392,524.26173 M 218.49409,497.69619 C 218.82161,434.71366 218.51431,232.15885 218.49409,158.01549 M 218.49409,158.01549 C 209.81769,134.31681 203.63612,125.97464 172.52675,117.71945"
		 id="path4056"
		 style="fill:none;stroke:#000000;stroke-width:10;stroke-opacity:1;filter:url(#filter)" />
	</g>
  </g>
</svg>
