<?xml version="1.0" encoding="UTF-8" standalone="no"?>
<!-- Created with Inkscape (http://www.inkscape.org/) -->
<svg
   xmlns:dc="http://purl.org/dc/elements/1.1/"
   xmlns:cc="http://creativecommons.org/ns#"
   xmlns:rdf="http://www.w3.org/1999/02/22-rdf-syntax-ns#"
   xmlns:svg="http://www.w3.org/2000/svg"
   xmlns="http://www.w3.org/2000/svg"
   xmlns:sodipodi="http://sodipodi.sourceforge.net/DTD/sodipodi-0.dtd"
   xmlns:inkscape="http://www.inkscape.org/namespaces/inkscape"
   version="1.0"
   width="1881"
   height="655"
   id="svg2440"
   sodipodi:version="0.32"
   inkscape:version="0.46"
   sodipodi:docname="pines.svg"
   inkscape:output_extension="org.inkscape.output.svg.inkscape">
  <metadata
	 id="metadata22">
	<rdf:RDF>
	  <cc:Work
		 rdf:about="">
		<dc:format>image/svg+xml</dc:format>
		<dc:type
		   rdf:resource="http://purl.org/dc/dcmitype/StillImage" />
	  </cc:Work>
	</rdf:RDF>
  </metadata>
  <sodipodi:namedview
	 inkscape:window-height="949"
	 inkscape:window-width="1280"
	 inkscape:pageshadow="2"
	 inkscape:pageopacity="0.0"
	 guidetolerance="10.0"
	 gridtolerance="10.0"
	 objecttolerance="10.0"
	 borderopacity="1.0"
	 bordercolor="#666666"
	 pagecolor="#ffffff"
	 id="base"
	 showgrid="false"
	 inkscape:zoom="3.350205"
	 inkscape:cx="300.85662"
	 inkscape:cy="0.80100435"
	 inkscape:window-x="0"
	 inkscape:window-y="25"
	 inkscape:current-layer="svg2440" />
  <defs
	 id="defs2443">
	<inkscape:perspective
	   sodipodi:type="inkscape:persp3d"
	   inkscape:vp_x="0 : 327.5 : 1"
	   inkscape:vp_y="0 : 1000 : 0"
	   inkscape:vp_z="1881 : 327.5 : 1"
	   inkscape:persp3d-origin="940.5 : 218.33333 : 1"
	   id="perspective24" />
	<clipPath
	   id="clipPath">
	  <path
		 d="M 172.52675,117.71945 C 231.85961,116.92649 248.58709,116.01511 325.9502,115.92851 C 538.23042,153.15306 417.30298,367.43536 304.16049,339.79541 C 302.82191,339.1925 303.03576,337.2071 304.59331,336.77929 C 335.21502,336.31685 395.06125,321.12313 396.99063,238.30908 C 398.91018,155.91693 330.72169,129.59024 309.83179,130.85297 C 288.64448,132.13368 286.06673,132.91669 265.95387,139.80765 C 266.13828,186.39768 265.58599,417.96362 266.25236,480.68231 C 270.20212,513.55208 281.0414,520.8628 305.05596,524.26173 C 264.89534,526.4667 212.29239,525.12874 179.392,524.26173 C 199.02572,517.12644 205.63003,509.04009 218.49409,497.69619 C 218.82161,434.71366 218.51431,232.15885 218.49409,158.01549 C 209.81769,134.31681 203.63612,125.97464 172.52675,117.71945 z"
		 id="path3263"
		 style="fill:#ffffff;fill-opacity:1;fill-rule:evenodd;stroke:#ffffff;stroke-width:1px;stroke-linecap:butt;stroke-linejoin:miter;stroke-opacity:1" />
	</clipPath>
	<filter
	   id="filter"
	   height="2"
	   width="2"
	   x="-0.5"
	   y="-0.5">
	  <feGaussianBlur
		 stdDeviation="5.0"
		 id="feGaussianBlur4037" />
	</filter>
  </defs>
  <rect
	 width="553.99591"
	 height="553.99597"
	 x="29.000523"
	 y="48.998901"
	 id="rect2451"
	 style="fill:#005ae5;fill-opacity:1;fill-rule:evenodd;stroke:none;stroke-width:1px;stroke-linecap:butt;stroke-linejoin:miter;stroke-opacity:1" />
  <path
	 d="M 172.52675,117.71945 C 231.85961,116.92649 248.58709,116.01511 325.9502,115.92851 C 538.23042,153.15306 417.30298,367.43536 304.16049,339.79541 C 302.82191,339.1925 303.03576,337.2071 304.59331,336.77929 C 335.21502,336.31685 395.06125,321.12313 396.99063,238.30908 C 398.91018,155.91693 330.72169,129.59024 309.83179,130.85297 C 288.64448,132.13368 286.06673,132.91669 265.95387,139.80765 C 266.13828,186.39768 265.58599,417.96362 266.25236,480.68231 C 270.20212,513.55208 281.0414,520.8628 305.05596,524.26173 C 264.89534,526.4667 212.29239,525.12874 179.392,524.26173 C 199.02572,517.12644 205.63003,509.04009 218.49409,497.69619 C 218.82161,434.71366 218.51431,232.15885 218.49409,158.01549 C 209.81769,134.31681 203.63612,125.97464 172.52675,117.71945 z"
	 id="path4041"
	 style="fill:#ffffff;fill-opacity:1;fill-rule:evenodd;stroke:none;stroke-width:1px;stroke-linecap:butt;stroke-linejoin:miter;stroke-opacity:1" />
  <path
	 d="M 633.39407,118.9134 C 700.55414,119.21189 720.80324,116.73118 769.63861,118.56887 C 750.19458,122.27212 734.63784,124.50834 727.11968,146.37441 C 726.76526,192.11962 726.17874,421.74254 726.5227,477.10044 C 732.23946,501.41546 746.03259,516.47677 777.26587,523.06778 C 717.21422,519.79364 647.51113,522.51254 626.64936,522.48735 C 647.03186,515.17634 671.38346,506.66131 678.16745,495.60677 C 678.38467,427.24231 679.5923,191.37138 678.76443,152.34419 C 671.477,135.8328 651.60191,126.37563 633.39407,118.9134 z"
	 id="path3223"
	 style="fill:#000000;fill-opacity:1;fill-rule:evenodd;stroke:#000000;stroke-width:1px;stroke-linecap:butt;stroke-linejoin:miter;stroke-opacity:1" />
  <path
	 d="M 821.98771,525.45963 C 851.41909,525.16273 923.18914,527.67901 955.4173,526.45312 C 936.13926,513.7248 913.0986,521.3182 905.78001,499.28773 C 898.44017,477.19329 904.59483,473.5174 897.2311,364.95816 C 893.08365,303.81466 894.6897,241.92155 894.27704,227.807 C 893.86456,213.69847 897.29374,201.88987 897.86513,196.46403 C 956.74388,264.84011 1100.2662,428.17355 1219.1041,533.42729 C 1231.5703,399.01066 1220.7788,189.18775 1224.6642,142.68649 C 1229.293,125.51613 1247.5252,124.64632 1264.6939,116.36535 C 1224.3297,114.766 1176.3159,114.80431 1138.8721,116.19269 C 1171.301,126.07045 1182.3785,126.4393 1190.3995,146.75853 C 1190.8222,195.78243 1189.4551,396.88449 1192.088,452.37881 C 1105.0272,357.91457 978.2338,213.6246 874.64812,108.76706 C 870.75193,110.32224 869.61594,112.94043 867.62869,115.30097 C 866.49959,155.38309 867.48811,414.65641 867.57748,495.91071 C 866.02517,509.70644 841.2463,519.92539 821.98771,525.45963 z"
	 id="path3225"
	 style="fill:#000000;fill-opacity:1;fill-rule:evenodd;stroke:#000000;stroke-width:1px;stroke-linecap:butt;stroke-linejoin:miter;stroke-opacity:1" />
  <path
	 d="M 1312.8413,117.61392 C 1376.9284,117.03592 1485.7528,117.89876 1530.1415,116.86769 C 1536.5101,115.65007 1540.3632,113.24408 1544.3831,111.74966 C 1542.8213,125.04216 1535.0513,166.93019 1529.7752,185.95294 C 1527.6951,147.02016 1499.061,136.63493 1471.9376,137.3142 C 1444.9197,137.99083 1432.4652,139.79002 1407.2793,137.36696 C 1407.3444,162.79704 1406.9482,263.77905 1407.2529,297.97381 C 1465.9167,301.56433 1520.7181,299.07113 1536.6224,268.158 C 1534.2289,302.27008 1529.4239,340.13986 1526.3517,362.8334 C 1513.9927,344.79163 1520.9849,332.76439 1502.8057,324.83474 C 1484.5499,316.87172 1439.1114,319.65937 1407.6388,318.86495 C 1407.6375,350.4851 1407.835,434.71504 1407.675,474.71253 C 1438.8608,527.109 1540.07,527.92386 1554.084,459.19109 C 1551.3951,489.55598 1548.0243,500.35954 1544.9801,524.26173 C 1511.9784,525.72602 1379.4843,519.73706 1314.0987,525.1572 C 1357.1249,520.84804 1356.4324,492.77162 1359.3198,484.86116 C 1361.3549,452.29534 1359.334,199.05915 1359.267,152.38351 C 1356.6673,128.18617 1335.2184,122.59212 1312.8413,117.61392 z"
	 id="path3247"
	 style="fill:#000000;fill-opacity:1;fill-rule:evenodd;stroke:#000000;stroke-width:1px;stroke-linecap:butt;stroke-linejoin:miter;stroke-opacity:1" />
  <path
	 d="M 1617.098,432.06548 C 1612.3873,478.11262 1644.8067,515.88247 1701.7195,512.61941 C 1758.6144,509.35738 1780.3059,464.01081 1778.2994,440.60167 C 1776.2952,417.21981 1766.1784,392.69376 1690.1984,321.5193 C 1614.0595,250.19605 1614.9463,230.02533 1610.6423,198.25808 C 1606.2987,166.19775 1666.9651,82.187592 1806.7056,112.98833 C 1794.6643,178.41381 1808.5015,172.59212 1796.9711,190.36129 C 1793.2476,154.06938 1772.81,125.90302 1725.1554,124.22129 C 1677.4911,122.53922 1653.379,168.97096 1656.4282,191.50404 C 1659.4434,213.78615 1661.978,239.76963 1740.8537,302.10144 C 1819.5455,364.28794 1816.6862,408.52389 1818.7724,423.47809 C 1820.8534,438.39431 1809.6289,487.14439 1742.5422,519.07495 C 1675.6988,550.88973 1622.808,529.29632 1613.3712,514.85368 C 1603.7973,500.20122 1599.4219,492.87748 1617.098,432.06548 z"
	 id="path3249"
	 style="fill:#000000;fill-opacity:1;fill-rule:evenodd;stroke:#000000;stroke-width:1px;stroke-linecap:butt;stroke-linejoin:miter;stroke-opacity:1" />
  <rect
	 width="519.27014"
	 height="517.7052"
	 ry="0"
	 x="46.314781"
	 y="66.293404"
	 id="rect3251"
	 style="fill:none;fill-opacity:1;stroke:#ffffff;stroke-width:11.87709522;stroke-miterlimit:4;stroke-dasharray:none;stroke-opacity:1" />
  <path
	 d="M 304.00303,63.902531 C 304.00303,158.98632 304.00303,586.88407 304.00303,586.88407"
	 id="path3259"
	 style="fill:none;fill-rule:evenodd;stroke:#ffffff;stroke-width:11.83595371;stroke-linecap:butt;stroke-linejoin:miter;stroke-miterlimit:4;stroke-dasharray:none;stroke-opacity:1" />
  <path
	 d="M 574.41015,324.87095 C 476.67237,324.87095 36.831122,324.87095 36.831122,324.87095"
	 id="path3261"
	 style="fill:none;fill-rule:evenodd;stroke:#ffffff;stroke-width:12;stroke-linecap:butt;stroke-linejoin:miter;stroke-miterlimit:4;stroke-dasharray:none;stroke-opacity:1" />
  <g
	 clip-path="url(#clipPath)"
	 id="g4050">
	<g
	   id="g4052">
	  <path
		 d="M 172.52675,117.71945 C 231.85961,116.92649 248.58709,116.01511 325.9502,115.92851 M 325.9502,115.92851 C 538.23042,153.15306 417.30298,367.43536 304.16049,339.79541 M 265.95387,139.80765 C 266.13828,186.39768 265.58599,417.96362 266.25236,480.68231 M 266.25236,480.68231 C 270.20212,513.55208 281.0414,520.8628 305.05596,524.26173 M 179.392,524.26173 C 199.02572,517.12644 205.63003,509.04009 218.49409,497.69619"
		 id="path4054"
		 style="fill:none;stroke:#ffffff;stroke-width:10;stroke-opacity:1;filter:url(#filter)" />
	  <path
		 d="M 304.16049,339.79541 C 302.82191,339.1925 303.03576,337.2071 304.59331,336.77929 M 304.59331,336.77929 C 335.21502,336.31685 395.06125,321.12313 396.99063,238.30908 M 396.99063,238.30908 C 398.91018,155.91693 330.72169,129.59024 309.83179,130.85297 M 309.83179,130.85297 C 288.64448,132.13368 286.06673,132.91669 265.95387,139.80765 M 305.05596,524.26173 C 264.89534,526.4667 212.29239,525.12874 179.392,524.26173 M 218.49409,497.69619 C 218.82161,434.71366 218.51431,232.15885 218.49409,158.01549 M 218.49409,158.01549 C 209.81769,134.31681 203.63612,125.97464 172.52675,117.71945"
		 id="path4056"
		 style="fill:none;stroke:#000000;stroke-width:10;stroke-opacity:1;filter:url(#filter)" />
	</g>
  </g>
</svg>
