<?xml version="1.0" encoding="UTF-8" standalone="no"?>
<!-- Created with Inkscape (http://www.inkscape.org/) -->

<svg
   xmlns:svg="http://www.w3.org/2000/svg"
   xmlns="http://www.w3.org/2000/svg"
   version="1.0"
   width="1881"
   height="655"
   id="svg2440">
  <defs
     id="defs2443">
    <clipPath
       id="clipPath">
      <path
         d="m 172.52675,117.71945 c 59.33286,-0.79296 76.06034,-1.70434 153.42345,-1.79094 212.28022,37.22455 91.35278,251.50685 -21.78971,223.8669 -1.33858,-0.60291 -1.12473,-2.58831 0.43282,-3.01612 30.62171,-0.46244 90.46794,-15.65616 92.39732,-98.47021 1.91955,-82.39215 -66.26894,-108.71884 -87.15884,-107.45611 -21.18731,1.28071 -23.76506,2.06372 -43.87792,8.95468 0.18441,46.59003 -0.36788,278.15597 0.29849,340.87466 3.94976,32.86977 14.78904,40.18049 38.8036,43.57942 -40.16062,2.20497 -92.76357,0.86701 -125.66396,0 19.63372,-7.13529 26.23803,-15.22164 39.10209,-26.56554 0.32752,-62.98253 0.0202,-265.53734 0,-339.6807 -8.6764,-23.69868 -14.85797,-32.04085 -45.96734,-40.29604 z"
         id="path3263"
         style="fill:#ffffff;fill-opacity:1;fill-rule:evenodd;stroke:#ffffff;stroke-width:1px;stroke-linecap:butt;stroke-linejoin:miter;stroke-opacity:1" />
    </clipPath>
    <filter
       x="-0.5"
       y="-0.5"
       width="2"
       height="2"
       color-interpolation-filters="sRGB"
       id="filter">
      <feGaussianBlur
         stdDeviation="5.0"
         id="feGaussianBlur4037" />
    </filter>
    <filter
       x="-0.25"
       y="-0.25"
       width="1.5"
       height="1.5"
       color-interpolation-filters="sRGB"
       id="filter10514">
      <feGaussianBlur
         stdDeviation="10"
         result="result6"
         in="SourceGraphic"
         id="feGaussianBlur10516" />
      <feComposite
         in2="SourceGraphic"
         operator="xor"
         in="result6"
         id="feComposite10518" />
      <feGaussianBlur
         stdDeviation="10"
         result="result2"
         id="feGaussianBlur10520" />
      <feComposite
         in2="SourceGraphic"
         operator="atop"
         result="result91"
         id="feComposite10522" />
      <feComposite
         in2="result91"
         operator="xor"
         in="result2"
         result="result4"
         id="feComposite10524" />
      <feGaussianBlur
         stdDeviation="5"
         result="result3"
         in="result4"
         id="feGaussianBlur10526" />
      <feSpecularLighting
         surfaceScale="12"
         specularConstant="3"
         specularExponent="35"
         result="result5"
         in="result3"
         lighting-color="#ffffff"
         id="feSpecularLighting10528">
        <feDistantLight
           azimuth="235"
           elevation="45"
           id="feDistantLight10530" />
      </feSpecularLighting>
      <feComposite
         in2="result5"
         operator="arithmetic"
         k1="0"
         k2="0.8"
         k3="0.7"
         k4="0"
         in="SourceGraphic"
         result="result7"
         id="feComposite10532" />
      <feComposite
         in2="SourceGraphic"
         operator="in"
         in="result7"
         result="fbSourceGraphic"
         id="feComposite10534" />
      <feColorMatrix
         id="feColorMatrix10602"
         values="0 0 0 -1 0 0 0 0 -1 0 0 0 0 -1 0 0 0 0 1 0"
         in="fbSourceGraphic"
         result="fbSourceGraphicAlpha" />
      <feGaussianBlur
         result="blur"
         stdDeviation="15.000000"
         in="fbSourceGraphicAlpha"
         id="feGaussianBlur10604" />
      <feColorMatrix
         values="-1 0 0 0 1 0 -1 0 0 1 0 0 -1 0 1 0 0 0 0.900000 0 "
         type="matrix"
         result="bluralpha"
         id="feColorMatrix10606" />
      <feOffset
         result="offsetBlur"
         dy="5.000000"
         dx="5.000000"
         in="bluralpha"
         id="feOffset10608" />
      <feMerge
         id="feMerge10610">
        <feMergeNode
           in="offsetBlur"
           id="feMergeNode10612" />
        <feMergeNode
           in="fbSourceGraphic"
           id="feMergeNode10614" />
      </feMerge>
    </filter>
    <filter
       x="-0.25"
       y="-0.25"
       width="1.5"
       height="1.5"
       color-interpolation-filters="sRGB"
       id="filter10536">
      <feGaussianBlur
         stdDeviation="10"
         result="result6"
         in="SourceGraphic"
         id="feGaussianBlur10538" />
      <feComposite
         in2="SourceGraphic"
         operator="xor"
         in="result6"
         id="feComposite10540" />
      <feGaussianBlur
         stdDeviation="10"
         result="result2"
         id="feGaussianBlur10542" />
      <feComposite
         in2="SourceGraphic"
         operator="atop"
         result="result91"
         id="feComposite10544" />
      <feComposite
         in2="result91"
         operator="xor"
         in="result2"
         result="result4"
         id="feComposite10546" />
      <feGaussianBlur
         stdDeviation="5"
         result="result3"
         in="result4"
         id="feGaussianBlur10548" />
      <feSpecularLighting
         surfaceScale="12"
         specularConstant="3"
         specularExponent="35"
         result="result5"
         in="result3"
         lighting-color="#ffffff"
         id="feSpecularLighting10550">
        <feDistantLight
           azimuth="235"
           elevation="45"
           id="feDistantLight10552" />
      </feSpecularLighting>
      <feComposite
         in2="result5"
         operator="arithmetic"
         k1="0"
         k2="0.8"
         k3="0.7"
         k4="0"
         in="SourceGraphic"
         result="result7"
         id="feComposite10554" />
      <feComposite
         in2="SourceGraphic"
         operator="in"
         in="result7"
         result="fbSourceGraphic"
         id="feComposite10556" />
      <feColorMatrix
         id="feColorMatrix10616"
         values="0 0 0 -1 0 0 0 0 -1 0 0 0 0 -1 0 0 0 0 1 0"
         in="fbSourceGraphic"
         result="fbSourceGraphicAlpha" />
      <feGaussianBlur
         result="blur"
         stdDeviation="15.000000"
         in="fbSourceGraphicAlpha"
         id="feGaussianBlur10618" />
      <feColorMatrix
         values="-1 0 0 0 1 0 -1 0 0 1 0 0 -1 0 1 0 0 0 0.900000 0 "
         type="matrix"
         result="bluralpha"
         id="feColorMatrix10620" />
      <feOffset
         result="offsetBlur"
         dy="5.000000"
         dx="5.000000"
         in="bluralpha"
         id="feOffset10622" />
      <feMerge
         id="feMerge10624">
        <feMergeNode
           in="offsetBlur"
           id="feMergeNode10626" />
        <feMergeNode
           in="fbSourceGraphic"
           id="feMergeNode10628" />
      </feMerge>
    </filter>
    <filter
       x="-0.25"
       y="-0.25"
       width="1.5"
       height="1.5"
       color-interpolation-filters="sRGB"
       id="filter10558">
      <feGaussianBlur
         stdDeviation="10"
         result="result6"
         in="SourceGraphic"
         id="feGaussianBlur10560" />
      <feComposite
         in2="SourceGraphic"
         operator="xor"
         in="result6"
         id="feComposite10562" />
      <feGaussianBlur
         stdDeviation="10"
         result="result2"
         id="feGaussianBlur10564" />
      <feComposite
         in2="SourceGraphic"
         operator="atop"
         result="result91"
         id="feComposite10566" />
      <feComposite
         in2="result91"
         operator="xor"
         in="result2"
         result="result4"
         id="feComposite10568" />
      <feGaussianBlur
         stdDeviation="5"
         result="result3"
         in="result4"
         id="feGaussianBlur10570" />
      <feSpecularLighting
         surfaceScale="12"
         specularConstant="3"
         specularExponent="35"
         result="result5"
         in="result3"
         lighting-color="#ffffff"
         id="feSpecularLighting10572">
        <feDistantLight
           azimuth="235"
           elevation="45"
           id="feDistantLight10574" />
      </feSpecularLighting>
      <feComposite
         in2="result5"
         operator="arithmetic"
         k1="0"
         k2="0.8"
         k3="0.7"
         k4="0"
         in="SourceGraphic"
         result="result7"
         id="feComposite10576" />
      <feComposite
         in2="SourceGraphic"
         operator="in"
         in="result7"
         result="fbSourceGraphic"
         id="feComposite10578" />
      <feColorMatrix
         id="feColorMatrix10630"
         values="0 0 0 -1 0 0 0 0 -1 0 0 0 0 -1 0 0 0 0 1 0"
         in="fbSourceGraphic"
         result="fbSourceGraphicAlpha" />
      <feGaussianBlur
         result="blur"
         stdDeviation="15.000000"
         in="fbSourceGraphicAlpha"
         id="feGaussianBlur10632" />
      <feColorMatrix
         values="-1 0 0 0 1 0 -1 0 0 1 0 0 -1 0 1 0 0 0 0.900000 0 "
         type="matrix"
         result="bluralpha"
         id="feColorMatrix10634" />
      <feOffset
         result="offsetBlur"
         dy="5.000000"
         dx="5.000000"
         in="bluralpha"
         id="feOffset10636" />
      <feMerge
         id="feMerge10638">
        <feMergeNode
           in="offsetBlur"
           id="feMergeNode10640" />
        <feMergeNode
           in="fbSourceGraphic"
           id="feMergeNode10642" />
      </feMerge>
    </filter>
    <filter
       x="-0.25"
       y="-0.25"
       width="1.5"
       height="1.5"
       color-interpolation-filters="sRGB"
       id="filter10580">
      <feGaussianBlur
         stdDeviation="10"
         result="result6"
         in="SourceGraphic"
         id="feGaussianBlur10582" />
      <feComposite
         in2="SourceGraphic"
         operator="xor"
         in="result6"
         id="feComposite10584" />
      <feGaussianBlur
         stdDeviation="10"
         result="result2"
         id="feGaussianBlur10586" />
      <feComposite
         in2="SourceGraphic"
         operator="atop"
         result="result91"
         id="feComposite10588" />
      <feComposite
         in2="result91"
         operator="xor"
         in="result2"
         result="result4"
         id="feComposite10590" />
      <feGaussianBlur
         stdDeviation="5"
         result="result3"
         in="result4"
         id="feGaussianBlur10592" />
      <feSpecularLighting
         surfaceScale="12"
         specularConstant="3"
         specularExponent="35"
         result="result5"
         in="result3"
         lighting-color="#ffffff"
         id="feSpecularLighting10594">
        <feDistantLight
           azimuth="235"
           elevation="45"
           id="feDistantLight10596" />
      </feSpecularLighting>
      <feComposite
         in2="result5"
         operator="arithmetic"
         k1="0"
         k2="0.8"
         k3="0.7"
         k4="0"
         in="SourceGraphic"
         result="result7"
         id="feComposite10598" />
      <feComposite
         in2="SourceGraphic"
         operator="in"
         in="result7"
         result="fbSourceGraphic"
         id="feComposite10600" />
      <feColorMatrix
         id="feColorMatrix10644"
         values="0 0 0 -1 0 0 0 0 -1 0 0 0 0 -1 0 0 0 0 1 0"
         in="fbSourceGraphic"
         result="fbSourceGraphicAlpha" />
      <feGaussianBlur
         result="blur"
         stdDeviation="15.000000"
         in="fbSourceGraphicAlpha"
         id="feGaussianBlur10646" />
      <feColorMatrix
         values="-1 0 0 0 1 0 -1 0 0 1 0 0 -1 0 1 0 0 0 0.900000 0 "
         type="matrix"
         result="bluralpha"
         id="feColorMatrix10648" />
      <feOffset
         result="offsetBlur"
         dy="5.000000"
         dx="5.000000"
         in="bluralpha"
         id="feOffset10650" />
      <feMerge
         id="feMerge10652">
        <feMergeNode
           in="offsetBlur"
           id="feMergeNode10654" />
        <feMergeNode
           in="fbSourceGraphic"
           id="feMergeNode10656" />
      </feMerge>
    </filter>
    <filter
       x="-0.25"
       y="-0.25"
       width="1.5"
       height="1.5"
       color-interpolation-filters="sRGB"
       id="filter12374">
      <feGaussianBlur
         stdDeviation="10"
         result="result6"
         in="SourceGraphic"
         id="feGaussianBlur12376" />
      <feComposite
         in2="SourceGraphic"
         operator="xor"
         in="result6"
         id="feComposite12378" />
      <feGaussianBlur
         stdDeviation="10"
         result="result2"
         id="feGaussianBlur12380" />
      <feComposite
         in2="SourceGraphic"
         operator="atop"
         result="result91"
         id="feComposite12382" />
      <feComposite
         in2="result91"
         operator="xor"
         in="result2"
         result="result4"
         id="feComposite12384" />
      <feGaussianBlur
         stdDeviation="5"
         result="result3"
         in="result4"
         id="feGaussianBlur12386" />
      <feSpecularLighting
         surfaceScale="12"
         specularConstant="3"
         specularExponent="35"
         result="result5"
         in="result3"
         lighting-color="#ffffff"
         id="feSpecularLighting12388">
        <feDistantLight
           azimuth="235"
           elevation="45"
           id="feDistantLight12390" />
      </feSpecularLighting>
      <feComposite
         in2="result5"
         operator="arithmetic"
         k1="0"
         k2="0.8"
         k3="0.7"
         k4="0"
         in="SourceGraphic"
         result="result7"
         id="feComposite12392" />
      <feComposite
         in2="SourceGraphic"
         operator="in"
         in="result7"
         result="fbSourceGraphic"
         id="feComposite12394" />
      <feColorMatrix
         id="feColorMatrix12438"
         values="0 0 0 -1 0 0 0 0 -1 0 0 0 0 -1 0 0 0 0 1 0"
         in="fbSourceGraphic"
         result="fbSourceGraphicAlpha" />
      <feGaussianBlur
         result="blur"
         stdDeviation="5.000000"
         in="fbSourceGraphicAlpha"
         id="feGaussianBlur12440" />
      <feColorMatrix
         values="1 0 0 0 0 0 1 0 0 0 0 0 1 0 0 0 0 0 0.900000 0 "
         type="matrix"
         result="bluralpha"
         id="feColorMatrix12442" />
      <feOffset
         result="offsetBlur"
         dy="5.000000"
         dx="5.000000"
         in="bluralpha"
         id="feOffset12444" />
      <feMerge
         id="feMerge12446">
        <feMergeNode
           in="offsetBlur"
           id="feMergeNode12448" />
        <feMergeNode
           in="fbSourceGraphic"
           id="feMergeNode12450" />
      </feMerge>
    </filter>
  </defs>
  <rect
     width="553.99591"
     height="553.99597"
     x="29.000523"
     y="48.998901"
     id="rect2451"
     style="fill:#005ae5;fill-opacity:1;fill-rule:evenodd;stroke:none" />
  <path
     d="m 633.39407,118.9134 c 67.16007,0.29849 87.40917,-2.18222 136.24454,-0.34453 -19.44403,3.70325 -35.00077,5.93947 -42.51893,27.80554 -0.35442,45.74521 -0.94094,275.36813 -0.59698,330.72603 5.71676,24.31502 19.50989,39.37633 50.74317,45.96734 -60.05165,-3.27414 -129.75474,-0.55524 -150.61651,-0.58043 20.3825,-7.31101 44.7341,-15.82604 51.51809,-26.88058 0.21722,-68.36446 1.42485,-304.23539 0.59698,-343.26258 C 671.477,135.8328 651.60191,126.37563 633.39407,118.9134 z"
     id="path3223"
     style="fill:#000000;fill-opacity:1;fill-rule:evenodd;stroke:#000000;stroke-width:1px;stroke-linecap:butt;stroke-linejoin:miter;stroke-opacity:1;filter:url(#filter10580)" />
  <path
     d="m 821.98771,525.45963 c 29.43138,-0.2969 101.20143,2.21938 133.42959,0.99349 -19.27804,-12.72832 -42.3187,-5.13492 -49.63729,-27.16539 -7.33984,-22.09444 -1.18518,-25.77033 -8.54891,-134.32957 -4.14745,-61.1435 -2.5414,-123.03661 -2.95406,-137.15116 -0.41248,-14.10853 3.0167,-25.91713 3.58809,-31.34297 58.87875,68.37608 202.40107,231.70952 321.23897,336.96326 12.4662,-134.41663 1.6747,-344.23954 5.5601,-390.7408 4.6288,-17.17036 22.861,-18.04017 40.0297,-26.32114 -40.3642,-1.59935 -88.378,-1.56104 -125.8218,-0.17266 32.4289,9.87776 43.5064,10.24661 51.5274,30.56584 0.4227,49.0239 -0.9444,250.12596 1.6885,305.62028 -87.0608,-94.46424 -213.8542,-238.75421 -317.43988,-343.61175 -3.89619,1.55518 -5.03218,4.17337 -7.01943,6.53391 -1.1291,40.08212 -0.14058,299.35544 -0.0512,380.60974 -1.55231,13.79573 -26.33118,24.01468 -45.58977,29.54892 z"
     id="path3225"
     style="fill:#000000;fill-opacity:1;fill-rule:evenodd;stroke:#000000;stroke-width:1px;stroke-linecap:butt;stroke-linejoin:miter;stroke-opacity:1;filter:url(#filter10558)" />
  <path
     d="m 1312.8413,117.61392 c 64.0871,-0.578 172.9115,0.28484 217.3002,-0.74623 6.3686,-1.21762 10.2217,-3.62361 14.2416,-5.11803 -1.5618,13.2925 -9.3318,55.18053 -14.6079,74.20328 -2.0801,-38.93278 -30.7142,-49.31801 -57.8376,-48.63874 -27.0179,0.67663 -39.4724,2.47582 -64.6583,0.0528 0.065,25.43008 -0.3311,126.41209 -0.026,160.60685 58.6638,3.59052 113.4652,1.09732 129.3695,-29.81581 -2.3935,34.11208 -7.1985,71.98186 -10.2707,94.6754 -12.359,-18.04177 -5.3668,-30.06901 -23.546,-37.99866 -18.2558,-7.96302 -63.6943,-5.17537 -95.1669,-5.96979 -0,31.62015 0.1962,115.85009 0.036,155.84758 31.1858,52.39647 132.395,53.21133 146.409,-15.52144 -2.6889,30.36489 -6.0597,41.16845 -9.1039,65.07064 -33.0017,1.46429 -165.4958,-4.52467 -230.8814,0.89547 43.0262,-4.30916 42.3337,-32.38558 45.2211,-40.29604 2.0351,-32.56582 0.014,-285.80201 -0.053,-332.47765 -2.5997,-24.19734 -24.0486,-29.79139 -46.4257,-34.76959 z"
     id="path3247"
     style="fill:#000000;fill-opacity:1;fill-rule:evenodd;stroke:#000000;stroke-width:1px;stroke-linecap:butt;stroke-linejoin:miter;stroke-opacity:1;filter:url(#filter10536)" />
  <path
     d="m 1617.098,432.06548 c -4.7107,46.04714 27.7087,83.81699 84.6215,80.55393 56.8949,-3.26203 78.5864,-48.6086 76.5799,-72.01774 -2.0042,-23.38186 -12.121,-47.90791 -88.101,-119.08237 -76.1389,-71.32325 -75.2521,-91.49397 -79.5561,-123.26122 -4.3436,-32.06033 56.3228,-116.070488 196.0633,-85.26975 -12.0413,65.42548 1.7959,59.60379 -9.7345,77.37296 -3.7235,-36.29191 -24.1611,-64.45827 -71.8157,-66.14 -47.6643,-1.68207 -71.7764,44.74967 -68.7272,67.28275 3.0152,22.28211 5.5498,48.26559 84.4255,110.5974 78.6918,62.1865 75.8325,106.42245 77.9187,121.37665 2.081,14.91622 -9.1435,63.6663 -76.2302,95.59686 -66.8434,31.81478 -119.7342,10.22137 -129.171,-4.22127 -9.5739,-14.65246 -13.9493,-21.9762 3.7268,-82.7882 z"
     id="path3249"
     style="fill:#000000;fill-opacity:1;fill-rule:evenodd;stroke:#000000;stroke-width:1px;stroke-linecap:butt;stroke-linejoin:miter;stroke-opacity:1;filter:url(#filter10514)" />
  <rect
     width="539.40308"
     height="539.10461"
     ry="0"
     x="36.459373"
     y="56.437996"
     id="rect3251"
     style="fill:none;stroke:#ffffff;stroke-width:4.46700001;stroke-miterlimit:4;stroke-opacity:1;stroke-dasharray:none" />
  <path
     d="m 304.00303,56.902273 c 0,97.737777 0,537.579037 0,537.579037"
     id="path3259"
     style="fill:none;stroke:#ffffff;stroke-width:4.5;stroke-linecap:butt;stroke-linejoin:miter;stroke-miterlimit:4;stroke-opacity:1;stroke-dasharray:none" />
  <path
     d="m 574.41015,324.87095 c -97.73778,0 -537.579028,0 -537.579028,0"
     id="path3261"
     style="fill:none;stroke:#ffffff;stroke-width:4.5;stroke-linecap:butt;stroke-linejoin:miter;stroke-miterlimit:4;stroke-opacity:1;stroke-dasharray:none" />
  <path
     d="m 172.52675,117.71945 c 59.33286,-0.79296 76.06034,-1.70434 153.42345,-1.79094 212.28022,37.22455 91.35278,251.50685 -21.78971,223.8669 -1.33858,-0.60291 -1.12473,-2.58831 0.43282,-3.01612 30.62171,-0.46244 90.46794,-15.65616 92.39732,-98.47021 1.91955,-82.39215 -66.26894,-108.71884 -87.15884,-107.45611 -21.18731,1.28071 -23.76506,2.06372 -43.87792,8.95468 0.18441,46.59003 -0.36788,278.15597 0.29849,340.87466 3.94976,32.86977 14.78904,40.18049 38.8036,43.57942 -40.16062,2.20497 -92.76357,0.86701 -125.66396,0 19.63372,-7.13529 26.23803,-15.22164 39.10209,-26.56554 0.32752,-62.98253 0.0202,-265.53734 0,-339.6807 -8.6764,-23.69868 -14.85797,-32.04085 -45.96734,-40.29604 z"
     id="path4041"
     style="fill:#ffffff;fill-opacity:1;fill-rule:evenodd;stroke:none;filter:url(#filter12374)" />
</svg>
